<?xml version="1.0" standalone="no"?>
<!DOCTYPE svg PUBLIC "-//W3C//DTD SVG 20010904//EN"
 "http://www.w3.org/TR/2001/REC-SVG-20010904/DTD/svg10.dtd">
<svg version="1.0" xmlns="http://www.w3.org/2000/svg"
 width="205.000000pt" height="214.000000pt" viewBox="0 0 205.000000 214.000000"
 preserveAspectRatio="xMidYMid meet">

<g transform="translate(0.000000,214.000000) scale(0.100000,-0.100000)"
fill="#000000" stroke="none">
<path d="M412 1243 l3 -548 5 527 5 527 218 -502 217 -502 0 -234 0 -233 233
4 c218 4 236 6 297 29 426 162 488 722 107 970 -32 21 -80 45 -108 54 l-49 17
0 219 0 220 -37 -7 c-145 -25 -266 -157 -329 -356 l-18 -58 -48 0 -47 0 -3
-157 -3 -156 -54 124 c-29 68 -101 233 -158 367 l-105 242 -64 0 -64 0 2 -547z
m818 317 l0 -190 -131 0 -131 0 7 28 c30 122 125 274 202 322 26 17 48 30 50
30 2 0 3 -85 3 -190z m-2 -532 l2 -328 55 0 55 0 2 314 3 315 35 -17 c19 -9
62 -43 96 -77 128 -126 186 -328 150 -525 -28 -156 -119 -299 -233 -367 -69
-40 -136 -53 -280 -53 l-133 0 0 535 0 536 123 -3 122 -3 3 -327z"/>
</g>
</svg>
